# AST/ASF file generated using VICON BodyLanguage
# -----------------------------------------------
:version 1.10
:name VICON
:units
  mass 1.0
  length 0.45
  angle deg
:documentation
   .ast/.asf automatically generated from VICON data using
   VICON BodyBuilder and BodyLanguage model FoxedUp or BRILLIANT.MOD
:root
   order TX TY TZ RX RY RZ
   axis XYZ
   position 0 0 0  
   orientation 0 0 0 
:bonedata
  begin
     id 1 
     name lhipjoint
     direction 0.630305 -0.712092 0.309259 
     length 2.29033 
     axis 0 0 0  XYZ
  end
  begin
     id 2 
     name lfemur
     direction 0.34202 -0.939693 0  
     length 6.43538  
     axis 0 0 20  XYZ
    dof rx ry rz
    limits (-160.0 20.0)
           (-70.0 70.0)
           (-60.0 70.0)
  end
  begin
     id 3 
     name ltibia
     direction 0.34202 -0.939693 0   
     length 7.43097   
     axis 0 0 20   XYZ
    dof rx
    limits (-10.0 170.0)
  end
  begin
     id 4 
     name lfoot
     direction 0.0334653 -0.0919451 0.995202   
     length 1.78438   
     axis -90 7.62852e-016 20   XYZ
    dof rx rz
    limits (-45.0 90.0)
           (-70.0 20.0)
  end
  begin
     id 5 
     name ltoes
     direction 1.53535e-011 -4.21933e-011 1   
     length 0.90832   
     axis -90 7.62852e-016 20   XYZ
    dof rx
    limits (-90.0 20.0)
  end
  begin
     id 6 
     name rhipjoint
     direction -0.682059 -0.67077 0.291312   
     length 2.43143  
     axis 0 0 0  XYZ 
  end
  begin
     id 7 
     name rfemur
     direction -0.34202 -0.939693 0   
     length 6.63488   
     axis 0 0 -20   XYZ
    dof rx ry rz
    limits (-160.0 20.0)
           (-70.0 70.0)
           (-70.0 60.0)
  end
  begin
     id 8 
     name rtibia
     direction -0.34202 -0.939693 0   
     length 6.86532   
     axis 0 0 -20   XYZ
    dof rx
    limits (-10.0 170.0)
 end
 begin
     id 9 
     name rfoot
     direction -0.105199 -0.289033 0.951521   
     length 1.77126  
     axis -90 -7.62852e-016 -20   XYZ
    dof rx rz
    limits (-45.0 90.0)
           (-20.0 70.0)
  end
  begin
     id 10 
     name rtoes
     direction -1.53551e-011 -4.21978e-011 1   
     length 0.889273   
     axis -90 -7.62852e-016 -20   XYZ
    dof rx
    limits (-90.0 20.0)
  end
  begin
     id 11 
     name lowerback
     direction -0.0514305 0.998089 0.034245   
     length 2.02077   
     axis 0 0 0   XYZ
    dof rx ry rz
    limits (-20.0 45.0)
           (-30.0 30.0)
           (-30.0 30.0)
  end
  begin
     id 12 
     name upperback
     direction 0.0203189 0.999449 -0.0262315   
     length 2.01413   
     axis 0 0 0   XYZ
    dof rx ry rz
    limits (-20.0 45.0)
           (-30.0 30.0)
           (-30.0 30.0)
  end
  begin
     id 13 
     name thorax
     direction 0.0452736 0.998142 -0.0407729   
     length 2.02986   
     axis 0 0 0   XYZ
    dof rx ry rz
    limits (-20.0 45.0)
           (-30.0 30.0)
           (-30.0 30.0)
  end
  begin
     id 14 
     name lowerneck
     direction -0.0180464 0.999645 -0.0195774   
     length 1.59034   
     axis 0 0 0   XYZ
    dof rx ry rz
    limits (-20.0 45.0)
           (-30.0 30.0)
           (-30.0 30.0)
  end
  begin
     id 15 
     name upperneck
     direction 0.0732272 0.979935 -0.18538   
     length 1.57486   
     axis 0 0 0   XYZ
    dof rx ry rz
    limits (-20.0 45.0)
           (-30.0 30.0)
           (-30.0 30.0)
  end
  begin
     id 16
     name head
     direction 0.0252963 0.997909 -0.059472  
     length 1.60334  
     axis 0 0 0   XYZ
    dof rx ry rz
    limits (-20.0 45.0)
           (-30.0 30.0)
           (-30.0 30.0)
  end
  begin
     id 17 
     name lclavicle
     direction 0.943819 0.330449 0.00315172  
     length 3.50322  
     axis 0 0 0   XYZ
    dof ry rz
    limits (-20.0 10.0)
           (0.0 20.0)
  end
  begin
     id 18 
     name lhumerus
     direction 1 -4.48949e-011 2.22502e-028   
     length 4.63208   
     axis 180 -30 -90   XYZ
    dof rx ry rz
    limits (-60.0 90.0)
           (-90.0 90.0)
           (-90.0 90.0)
  end
  begin
     id 19
     name lradius
     direction 1 -4.48967e-011 -4.10197e-027   
     length 3.41924   
     axis 180 -30 -90   XYZ
    dof rx
    limits (-10.0 170.0)
  end
  begin
     id 20
     name lwrist
     direction 1 -4.48987e-011 -1.24264e-027   
     length 1.70962   
     axis 2.50585e-015 90 90   XYZ
    dof ry
    limits (-180.0 0.0)
 end
  begin
     id 21 
     name lhand
     direction 1 -4.48983e-011 -2.48528e-027   
     length 0.62537   
     axis 1.58582e-015 90 90   XYZ
    dof rx rz
    limits (-90.0 90.0)
           (-45.0 45.0)
  end
  begin
     id 22 
     name lfingers
     direction 1 -4.48896e-011 -4.97056e-027   
     length 0.50419   
     axis 3.17164e-015 90 90   XYZ
    dof rx
    limits (0.0 90.0)
  end
  begin
     id 23
     name lthumb
     direction 0.707107 -6.34803e-011 0.707107   
     length 0.723919   
     axis -90 45 2.85299e-015   XYZ
    dof rx rz
    limits (-45.0 45.0)
           (-45.0 45.0)
  end
  begin
     id 24 
     name rclavicle
     direction -0.964499 0.260664 -0.0423695   
     length 3.91997  
     axis 0 0 0   XYZ 
    dof ry rz
    limits (-10.0 20.0)
           (-20.0 0.0)
  end
  begin
     id 25 
     name rhumerus
     direction -1 -4.48957e-011 -1.98656e-027  
     length 4.4064   
     axis 180 30 90   XYZ
    dof rx ry rz
    limits (-90.0 60.0)
           (-90.0 90.0)
           (-90.0 90.0)
  end
  begin
     id 26 
     name rradius
     direction -1 -4.48968e-011 1.96972e-027   
     length 3.44675   
     axis 180 30 90   XYZ
    dof rx
    limits (-10.0 170.0)
  end
  begin
     id 27 
     name rwrist
     direction -1 -4.48974e-011 -1.24264e-027   
     length 1.72338   
     axis 2.50585e-015 -90 -90   XYZ
    dof ry
    limits (-180.0 0.0)
  end
  begin
     id 28
     name rhand
     direction -1 -4.48901e-011 -2.48528e-027   
     length 0.513674   
     axis 1.58582e-015 -90 -90   XYZ
    dof rx rz
    limits (-90.0 90.0)
           (-45.0 45.0)
  end
  begin
     id 29
     name rfingers
     direction -1 -4.48946e-011 -4.97056e-027   
     length 0.414137   
     axis 3.17164e-015 -90 -90   XYZ
    dof rx
    limits (0.0 90.0)
  end
  begin
     id 30
     name rthumb
     direction -0.707107 -6.34859e-011 0.707107   
     length 0.59462   
     axis -90 -45 -2.85299e-015   XYZ
    dof rx rz
    limits (-45.0 45.0)
           (-45.0 45.0)
  end
:hierarchy
  begin
    root lhipjoint rhipjoint lowerback
    lhipjoint lfemur
    lfemur ltibia
    ltibia lfoot
    lfoot ltoes
    rhipjoint rfemur
    rfemur rtibia
    rtibia rfoot
    rfoot rtoes
    lowerback upperback
    upperback thorax
    thorax lowerneck lclavicle rclavicle
    lowerneck upperneck
    upperneck head
    lclavicle lhumerus
    lhumerus lradius
    lradius lwrist
    lwrist lhand lthumb
    lhand lfingers
    rclavicle rhumerus
    rhumerus rradius
    rradius rwrist
    rwrist rhand rthumb
    rhand rfingers
  end

#!OML:ASF E:\inclinewalkrobotboard\Project 1\Capture day 1\Session 1\subject1.ASF
:FULLY-SPECIFIED
:DEGREES
212
root 8.64032 16.6468 8.36934 -172.454 -5.20991 180.657
lowerback -3.8912 0.422043 -7.47937
upperback 2.48515 0.912797 1.68156
thorax 4.64589 0.172363 6.04314
lowerneck -8.78556 -1.03237 -4.15793
upperneck 29.7587 -5.30704 6.24128
head 11.3464 -3.09484 2.17883
rclavicle -7.21837e-015 6.90777e-015
rhumerus -41.5204 -25.9796 -69.7337
rradius 26.88
rwrist 17.4845
rhand -15.5125 -38.9944
rfingers 7.12502
rthumb 10.6704 -68.7034
lclavicle -7.21837e-015 6.90777e-015
lhumerus -29.9113 7.38108 82.4988
lradius 15.86
lwrist -31.0937
lhand -27.6138 -16.0143
lfingers 7.12502
lthumb -1.01295 13.963
rfemur -20.7897 5.48233 19.8257
rtibia 32.3571
rfoot 340.073 -7.65413
rtoes -35.4646
lfemur -10.9178 -7.02652 -23.2228
ltibia 15.6532
lfoot -13.8929 -1.18819
ltoes -53.5614
213
root 8.66428 16.6414 8.28733 -172.002 -5.35891 180.606
lowerback -4.94558 0.415574 -7.42945
upperback 2.19637 0.995558 1.50965
thorax 4.93234 0.220399 5.85695
lowerneck -8.89178 -1.08932 -4.32133
upperneck 30.1587 -5.53733 6.47745
head 11.5518 -3.21119 2.26338
rclavicle -2.49972e-014 3.37934e-015
rhumerus -42.3652 -28.0239 -68.5306
rradius 25.2907
rwrist 18.8138
rhand -15.4696 -39.6867
rfingers 7.12502
rthumb 10.7119 -69.3936
lclavicle -2.49972e-014 3.37934e-015
lhumerus -30.4446 10.8763 80.3641
lradius 14.3897
lwrist -34.654
lhand -27.5109 -16.0593
lfingers 7.12502
lthumb -0.913519 13.9184
rfemur -18.4843 6.33931 20.0984
rtibia 29.147
rfoot 340.669 -7.37903
rtoes -34.8091
lfemur -10.6245 -7.04985 -23.1324
ltibia 14.7723
lfoot -13.824 -1.37335
ltoes -53.727
214
root 8.6901 16.6346 8.2064 -171.577 -5.46771 180.615
lowerback -5.94908 0.413059 -7.37731
upperback 1.91423 1.07189 1.38579
thorax 5.19715 0.262672 5.72119
lowerneck -9.11423 -1.15616 -4.29494
upperneck 30.6954 -5.73779 6.38267
head 11.8213 -3.32884 2.19357
rclavicle -1.06847e-015 -3.8763e-015
rhumerus -43.429 -30.656 -66.7235
rradius 23.5293
rwrist 20.9698
rhand -15.2522 -40.9353
rfingers 7.12502
rthumb 10.9215 -70.6312
lclavicle -1.06847e-015 -3.8763e-015
lhumerus -31.211 15.3723 77.6218
lradius 12.9726
lwrist -39.2461
lhand -27.398 -16.2106
lfingers 7.12502
lthumb -0.804514 13.7676
rfemur -16.4207 6.31154 20.389
rtibia 25.9582
rfoot 342.197 -6.55388
rtoes -32.6074
lfemur -10.3223 -6.87157 -22.9317
ltibia 13.9172
lfoot -13.6408 -1.85092
ltoes -53.3332
215
root 8.7189 16.6267 8.12997 -171.236 -5.46751 180.534
lowerback -6.83745 0.39763 -7.47931
upperback 1.64477 1.12943 1.29034
thorax 5.41001 0.289609 5.70062
lowerneck -9.10161 -1.14641 -4.33546
upperneck 30.9817 -5.78028 6.32665
head 11.9355 -3.37819 2.17287
rclavicle 1.4387e-014 1.78906e-015
rhumerus -44.8438 -33.5943 -64.2449
rradius 21.6605
rwrist 23.6739
rhand -14.9072 -42.1495
rfingers 7.12502
rthumb 11.2542 -71.8276
lclavicle 1.4387e-014 1.78906e-015
lhumerus -32.2535 19.6246 74.7835
lradius 11.7128
lwrist -43.3846
lhand -27.2901 -16.2379
lfingers 7.12502
lthumb -0.700292 13.7407
rfemur -14.2672 6.05603 20.5308
rtibia 22.2786
rfoot 344.05 -5.54923
rtoes -27.2111
lfemur -9.85621 -6.51764 -22.8063
ltibia 12.8884
lfoot -13.3025 -2.23402
ltoes -53.1749
216
root 8.74572 16.6155 8.05912 -170.98 -5.47888 180.339
lowerback -7.6009 0.397372 -7.5643
upperback 1.4043 1.19714 1.14582
thorax 5.58096 0.322003 5.61772
lowerneck -8.88504 -1.13596 -4.41011
upperneck 30.9881 -5.7654 6.30314
head 11.893 -3.39621 2.18111
rclavicle -1.07344e-014 -4.96962e-015
rhumerus -46.7654 -36.6336 -61.2651
rradius 20.0691
rwrist 26.2117
rhand -14.9463 -42.5593
rfingers 7.12502
rthumb 11.2165 -72.2395
lclavicle -1.07344e-014 -4.96962e-015
lhumerus -33.6309 24.2643 71.4605
lradius 10.5335
lwrist -47.9459
lhand -27.191 -16.032
lfingers 7.12502
lthumb -0.604514 13.9469
rfemur -12.0217 5.18386 20.4162
rtibia 18.0357
rfoot 344.716 -5.05116
rtoes -27.118
lfemur -9.23761 -6.24684 -22.8523
ltibia 11.7315
lfoot -12.9805 -2.36181
ltoes -53.7097
217
root 8.77218 16.6009 7.99416 -170.695 -5.33062 180.118
lowerback -8.33396 0.466157 -7.61917
upperback 1.17516 1.35173 0.972808
thorax 5.73369 0.397547 5.49845
lowerneck -8.73906 -1.15319 -4.40121
upperneck 30.9698 -5.74883 6.16321
head 11.8493 -3.40929 2.13089
rclavicle 3.68e-014 1.17283e-014
rhumerus -49.0745 -39.5134 -58.0784
rradius 18.8974
rwrist 28.274
rhand -15.4303 -42.492
rfingers 7.12502
rthumb 10.7497 -72.197
lclavicle 3.68e-014 1.17283e-014
lhumerus -34.2503 25.5929 70.4483
lradius 9.75158
lwrist -48.5375
lhand -27.3063 -15.0484
lfingers 7.12502
lthumb -0.715944 14.9301
rfemur -10.1088 3.86324 20.1006
rtibia 14.0415
rfoot 345.752 -4.06851
rtoes -26.1602
lfemur -8.63338 -6.00307 -22.9208
ltibia 10.5396
lfoot -12.7836 -2.32804
ltoes -54.3259
218
root 8.79645 16.5871 7.93396 -170.417 -4.85555 179.857
lowerback -9.04596 0.626503 -7.75155
upperback 0.969451 1.63323 0.827993
thorax 5.87771 0.530833 5.47196
lowerneck -8.73897 -1.16158 -4.46177
upperneck 31.0021 -5.6901 6.01144
head 11.8547 -3.40584 2.09261
rclavicle -1.42876e-014 -1.51076e-014
rhumerus -51.5666 -42.18 -54.6565
rradius 17.8859
rwrist 30.2063
rhand -15.9161 -42.2599
rfingers 7.12502
rthumb 10.2811 -71.9886
lclavicle -1.42876e-014 -1.51076e-014
lhumerus -35.1517 26.9484 69.3883
lradius 9.54099
lwrist -49.1469
lhand -27.3977 -14.8923
lfingers 7.12502
lthumb -0.804244 15.0859
rfemur -8.75668 2.5715 19.6671
rtibia 11.1724
rfoot 346.527 -2.59463
rtoes -25.6199
lfemur -7.9812 -5.7274 -23.0592
ltibia 9.29937
lfoot -12.6283 -2.17269
ltoes -54.2947
219
root 8.81877 16.5794 7.87751 -170.202 -4.12262 179.788
lowerback -9.69012 0.860327 -7.69794
upperback 0.784813 1.98292 0.761739
thorax 5.99693 0.702484 5.43527
lowerneck -8.91482 -1.1498 -4.59399
upperneck 31.1181 -5.58313 5.86011
head 11.9289 -3.38379 2.07129
rclavicle -2.57923e-014 7.35503e-015
rhumerus -53.9223 -44.2176 -51.497
rradius 17.0008
rwrist 31.7817
rhand -16.3932 -42.1589
rfingers 7.12502
rthumb 9.82081 -71.9099
lclavicle -2.57923e-014 7.35503e-015
lhumerus -36.2233 28.3843 68.219
lradius 9.51913
lwrist -49.8735
lhand -27.3805 -15.1104
lfingers 7.12502
lthumb -0.787591 14.8679
rfemur -7.89244 1.74583 19.5137
rtibia 9.3552
rfoot 347.059 -1.29245
rtoes -26.5508
lfemur -7.2864 -5.46162 -23.0304
ltibia 8.08681
lfoot -12.4723 -1.81396
ltoes -54.058
220
root 8.84213 16.5789 7.83163 -169.963 -3.23563 179.861
lowerback -10.2059 1.11898 -7.54004
upperback 0.590141 2.33691 0.750268
thorax 6.03387 0.882281 5.39757
lowerneck -9.2067 -1.11099 -4.66564
upperneck 31.214 -5.41654 5.68291
head 12.013 -3.32381 2.03646
rclavicle -6.21202e-015 1.39149e-015
rhumerus -55.9232 -45.6901 -48.8679
rradius 16.2642
rwrist 32.9361
rhand -16.6065 -41.8362
rfingers 7.12502
rthumb 9.61504 -71.5968
lclavicle -6.21202e-015 1.39149e-015
lhumerus -37.3498 29.9476 66.9428
lradius 9.47108
lwrist -50.6017
lhand -27.4736 -15.1638
lfingers 7.12502
lthumb -0.877465 14.8141
rfemur -7.48551 1.39539 19.5776
rtibia 8.15103
rfoot 347.671 -0.291936
rtoes -27.8381
lfemur -6.77386 -5.45898 -22.8864
ltibia 7.10793
lfoot -12.4706 -1.02222
ltoes -54.17
221
root 8.8658 16.5839 7.8 -169.622 -2.32836 179.787
lowerback -10.6327 1.34326 -7.53533
upperback 0.370861 2.65428 0.686491
thorax 5.99688 1.04237 5.3839
lowerneck -9.35298 -1.05159 -4.59257
upperneck 31.1135 -5.18793 5.41811
head 11.9778 -3.22559 1.95402
rclavicle 3.5334e-014 -4.77083e-015
rhumerus -57.7946 -47.0708 -46.3731
rradius 15.6134
rwrist 34.0906
rhand -16.3028 -41.0618
rfingers 7.12502
rthumb 9.90807 -70.8087
lclavicle 3.5334e-014 -4.77083e-015
lhumerus -38.6331 31.5674 65.5431
lradius 9.58843
lwrist -50.97
lhand -27.5589 -15.3049
lfingers 7.12502
lthumb -0.95988 14.6727
rfemur -7.55117 1.34895 19.5011
rtibia 7.51795
rfoot 348.139 0.561948
rtoes -28.7497
lfemur -6.61467 -5.68884 -22.9579
ltibia 6.52791
lfoot -12.6809 0.0186646
ltoes -54.5584
